<?xml version="1.0" encoding="UTF-8"?>
<svg width="30" height="20" viewBox="0 0 30 20" fill="none" xmlns="http://www.w3.org/2000/svg">
<rect width="30" height="20" fill="white"/>
<rect y="0" width="4" height="1.53846" fill="#B22234"/>
<rect x="0" y="3.07692" width="4" height="1.53846" fill="#B22234"/>
<rect x="0" y="6.15384" width="4" height="1.53846" fill="#B22234"/>
<rect x="0" y="9.23076" width="4" height="1.53846" fill="#B22234"/>
<rect x="0" y="12.3076" width="4" height="1.53846" fill="#B22234"/>
<rect x="0" y="15.3846" width="4" height="1.53846" fill="#B22234"/>
<rect x="0" y="18.4615" width="4" height="1.53846" fill="#B22234"/>
<rect x="0" width="4" height="20" fill="#3C3B6E"/>
<rect x="6" y="0" width="24" height="1.53846" fill="#B22234"/>
<rect x="6" y="3.07692" width="24" height="1.53846" fill="white"/>
<rect x="6" y="6.15384" width="24" height="1.53846" fill="#B22234"/>
<rect x="6" y="9.23076" width="24" height="1.53846" fill="white"/>
<rect x="6" y="12.3076" width="24" height="1.53846" fill="#B22234"/>
<rect x="6" y="15.3846" width="24" height="1.53846" fill="white"/>
<rect x="6" y="18.4615" width="24" height="1.53846" fill="#B22234"/>
</svg>
