<svg xmlns="http://www.w3.org/2000/svg" viewBox="0 0 810 540">
  <rect fill="#039" width="810" height="540"/>
  <g fill="#fc0">
    <!-- Circle of 12 stars -->
    <path d="M405,100 l-10,30h-32l25,19l-9,29l26-18l26,18l-9-29l25-19h-32z"/>
    <path d="M503,130 l-10,30h-32l25,19l-9,29l26-18l26,18l-9-29l25-19h-32z"/>
    <path d="M570,200 l-10,30h-32l25,19l-9,29l26-18l26,18l-9-29l25-19h-32z"/>
    <path d="M590,290 l-10,30h-32l25,19l-9,29l26-18l26,18l-9-29l25-19h-32z"/>
    <path d="M550,380 l-10,30h-32l25,19l-9,29l26-18l26,18l-9-29l25-19h-32z"/>
    <path d="M455,430 l-10,30h-32l25,19l-9,29l26-18l26,18l-9-29l25-19h-32z"/>
    <path d="M355,430 l-10,30h-32l25,19l-9,29l26-18l26,18l-9-29l25-19h-32z"/>
    <path d="M260,380 l-10,30h-32l25,19l-9,29l26-18l26,18l-9-29l25-19h-32z"/>
    <path d="M220,290 l-10,30h-32l25,19l-9,29l26-18l26,18l-9-29l25-19h-32z"/>
    <path d="M240,200 l-10,30h-32l25,19l-9,29l26-18l26,18l-9-29l25-19h-32z"/>
    <path d="M307,130 l-10,30h-32l25,19l-9,29l26-18l26,18l-9-29l25-19h-32z"/>
    <path d="M405,70 l-10,30h-32l25,19l-9,29l26-18l26,18l-9-29l25-19h-32z"/>
  </g>
</svg> 