<svg xmlns="http://www.w3.org/2000/svg" viewBox="0 0 1200 600">
  <rect width="1200" height="600" fill="#00247d"/>
  <path d="M0 0L600 300L0 600zM1200 0L600 300L1200 600z" fill="#00247d"/>
  <path d="M0 0L1200 600M1200 0L0 600" stroke="#fff" stroke-width="120"/>
  <path d="M0 0L1200 600M1200 0L0 600" stroke="#cc142b" stroke-width="60"/>
  <path d="M600 0V600M0 300H1200" stroke="#fff" stroke-width="200"/>
  <path d="M600 0V600M0 300H1200" stroke="#cc142b" stroke-width="100"/>
  <g fill="#cc142b">
    <path d="M780 420l49 15-30 42 47-20-12 50 36-36-3 50 23-47 13 49 10-50 28 42-9-49 40 34-26-43 48 22-41-32 50 10-49-21 50-3-53-8 45-17-54 5 37-30-50 17 26-39-42 29 14-46-30 37 1-49-18 43-11-48-5 46-23-42-2 50-32-37 11 50-38-25 24 44-46-14 35 35-49-1 42 25-50 13 47 13-46 26 45 0-39 36 41-11-30 45 33-22-19 48 25-31-6 51 15-38 6 50 6-50 15 38-6-51 25 31-19-48 33 22-30-45 41 11-39-36 45 0-46-26 47-13-50-13 42-25-49 1 35-35-46 14 24-44-38 25 11-50-32 37-2-50-23 42-5-46-11 48-18-43 1 49-30-37 14 46-42-29 26 39-50-17 37 30-54-5 45 17-53 8 50 3-49 21 50-10-41 32 48-22-26 43 40-34-9 49 28-42 10 50 13-49 23 47-3-50 36 36-12-50 47 20-30-42 49-15-36 38 51-9-40 30 50 2-42 20 46 14-43 9 39 24-40-2 29 33-36-14 17 40-28-25 4 44-19-34-9 44-8-40-19 40 1-43-29 33 11-44-36 23 20-41-41 12 28-37-44 0 35-29-43-13 40-19-39-24 42-8-32-33 40 3-24-39 36 13-14-43 28 24-4-44 20 34 8-43 8 40 19-40 0 44 28-33-10 43 37-23-20 41 40-12-28 37 45 0-35 29 42 13-40 19 40 24-43 8 32 33-40-3 24 39-36-13 15 43-28-24 3 44-19-34-8 43-8-40-19 40z"/>
  </g>
</svg> 