<svg xmlns="http://www.w3.org/2000/svg" viewBox="0 0 1235 650">
  <!-- Red and white stripes -->
  <rect width="1235" height="650" fill="#fff"/>
  <rect width="1235" height="50" y="0" fill="#b22234"/>
  <rect width="1235" height="50" y="100" fill="#b22234"/>
  <rect width="1235" height="50" y="200" fill="#b22234"/>
  <rect width="1235" height="50" y="300" fill="#b22234"/>
  <rect width="1235" height="50" y="400" fill="#b22234"/>
  <rect width="1235" height="50" y="500" fill="#b22234"/>
  <rect width="1235" height="50" y="600" fill="#b22234"/>
  
  <!-- Blue field -->
  <rect width="494" height="350" fill="#3c3b6e"/>
  
  <!-- Stars -->
  <g fill="#fff">
    <!-- Row 1 -->
    <circle cx="41" cy="35" r="15"/>
    <circle cx="123" cy="35" r="15"/>
    <circle cx="205" cy="35" r="15"/>
    <circle cx="287" cy="35" r="15"/>
    <circle cx="369" cy="35" r="15"/>
    <circle cx="451" cy="35" r="15"/>
    
    <!-- Row 2 -->
    <circle cx="82" cy="88" r="15"/>
    <circle cx="164" cy="88" r="15"/>
    <circle cx="246" cy="88" r="15"/>
    <circle cx="328" cy="88" r="15"/>
    <circle cx="410" cy="88" r="15"/>
    
    <!-- Row 3 -->
    <circle cx="41" cy="141" r="15"/>
    <circle cx="123" cy="141" r="15"/>
    <circle cx="205" cy="141" r="15"/>
    <circle cx="287" cy="141" r="15"/>
    <circle cx="369" cy="141" r="15"/>
    <circle cx="451" cy="141" r="15"/>
    
    <!-- Row 4 -->
    <circle cx="82" cy="194" r="15"/>
    <circle cx="164" cy="194" r="15"/>
    <circle cx="246" cy="194" r="15"/>
    <circle cx="328" cy="194" r="15"/>
    <circle cx="410" cy="194" r="15"/>
    
    <!-- Row 5 -->
    <circle cx="41" cy="247" r="15"/>
    <circle cx="123" cy="247" r="15"/>
    <circle cx="205" cy="247" r="15"/>
    <circle cx="287" cy="247" r="15"/>
    <circle cx="369" cy="247" r="15"/>
    <circle cx="451" cy="247" r="15"/>
    
    <!-- Row 6 -->
    <circle cx="82" cy="300" r="15"/>
    <circle cx="164" cy="300" r="15"/>
    <circle cx="246" cy="300" r="15"/>
    <circle cx="328" cy="300" r="15"/>
    <circle cx="410" cy="300" r="15"/>
  </g>
</svg> 